<svg xmlns="http://www.w3.org/2000/svg" version="1.1" xmlns:xlink="http://www.w3.org/1999/xlink" xmlns:svgjs="http://svgjs.dev/svgjs" width="2000" height="1414" viewBox="0 0 2000 1414"><g transform="matrix(1,0,0,1,-1.2121212121212466,0)"><svg viewBox="0 0 396 280" data-background-color="#ffffff" preserveAspectRatio="xMidYMid meet" height="1414" width="2000" xmlns="http://www.w3.org/2000/svg" xmlns:xlink="http://www.w3.org/1999/xlink"><g id="tight-bounds" transform="matrix(1,0,0,1,0.2400000000000091,0)"><svg viewBox="0 0 395.52 280" height="280" width="395.52"><g><svg viewBox="0 0 395.52 280" height="280" width="395.52"><g><svg viewBox="0 0 395.52 280" height="280" width="395.52"><g><svg viewBox="0 0 395.52 280" height="280" width="395.52"><g><svg viewBox="0 0 395.52 280" height="280" width="395.52"><g transform="matrix(1,0,0,1,126.19461023099815,74.00336708925556)"><svg viewBox="0 0 143.13077953800368 131.99326582148888" height="131.99326582148888" width="143.13077953800368"><g><svg xmlns="http://www.w3.org/2000/svg" xmlns:xlink="http://www.w3.org/1999/xlink" version="1.1" x="0" y="0" viewBox="0.03409091278301597 3.9170000000000003 99.85290908721697 92.083" enable-background="new 0 0 100 100" xml:space="preserve" height="131.99326582148888" width="143.13077953800368" class="icon-n$-0" data-fill-palette-color="accent" id="n$-0"><g fill="#39619b" data-fill-palette-color="accent"><path fill="#39619b" d="M6.498 62H18v27.23c0 3.557 2.414 6.77 6.005 6.77h51.016C78.611 96 82 92.787 82 89.23V62h11.365c0.008 0 0.015 0 0.02 0 3.591 0 6.502-2.801 6.502-6.359 0-1.873-0.808-3.479-2.096-4.656L54.647 5.95c-1.229-1.281-2.933-2.033-4.716-2.033-1.782 0-3.062 0.672-4.29 1.953L32 20.515V11.37c0-3.396-3.337-6.15-7-6.15s-7 2.753-7 6.15v22.957L1.841 51.089c-1.789 1.866-2.313 4.735-1.286 7.101C1.58 60.555 3.899 62 6.498 62zM49.932 21.473L78.227 51h-3.206C71.431 51 68 52.179 68 55.735V83H32V55.735C32 52.179 27.596 51 24.005 51h-2.367L49.932 21.473z" data-fill-palette-color="accent"></path></g></svg></g></svg></g><path d="M101.116 193.974L74.493 203.578 72.831 198.972 84.661 194.705 80.366 182.8 68.537 187.068 66.865 182.433 93.488 172.829 95.16 177.463 84.081 181.46 88.376 193.365 99.455 189.368ZM111.349 227.61L108.336 230.07 100.989 221.07 94.244 226.576 102.835 237.098 99.791 239.583 88.085 225.245 110.009 207.346 121.627 221.575 118.552 224.086 110.05 213.672 104.001 218.61ZM133.64 264.155L135.101 257.324 125.747 251.611 120.354 256.041 115.988 253.375 139.863 234.793 143.634 237.095 138.023 266.832ZM138.606 241.06L128.985 248.95 135.99 253.227ZM167.269 276.629L159.33 274.798 165.692 247.219 173.845 249.1C176.281 249.662 178.316 250.705 179.95 252.228 181.592 253.746 182.698 255.622 183.268 257.855 183.844 260.089 183.835 262.496 183.24 265.074V265.074L182.922 266.454C182.318 269.071 181.266 271.251 179.766 272.992 178.272 274.736 176.436 275.919 174.259 276.543 172.087 277.174 169.757 277.203 167.269 276.629ZM172.953 252.968L169.601 252.194 165.014 272.076 168.133 272.796C170.647 273.376 172.758 273.037 174.467 271.78 176.172 270.516 177.376 268.416 178.08 265.48V265.48L178.435 263.945C179.125 260.952 179.001 258.515 178.064 256.634 177.131 254.761 175.428 253.539 172.953 252.968ZM223.686 249.307L226.931 277.423 222.067 277.984 220.625 265.492 208.053 266.942 209.495 279.435 204.601 280 201.356 251.884 206.25 251.319 207.6 263.019 220.172 261.568 218.822 249.868ZM264.565 245.365L265.284 246.767C266.548 249.235 267.232 251.618 267.335 253.919 267.438 256.219 266.952 258.273 265.876 260.079 264.803 261.892 263.234 263.328 261.169 264.386V264.386C259.127 265.432 257.052 265.865 254.942 265.684 252.835 265.508 250.873 264.721 249.058 263.32 247.242 261.92 245.711 260.019 244.465 257.617V257.617L243.737 256.197C242.478 253.742 241.802 251.35 241.707 249.023 241.613 246.696 242.103 244.629 243.18 242.822 244.253 241.01 245.816 239.577 247.869 238.525 249.922 237.473 251.995 237.034 254.087 237.209 256.176 237.379 258.127 238.168 259.94 239.577 261.753 240.986 263.294 242.916 264.565 245.365ZM260.908 249.01L260.235 247.696C258.804 244.904 257.181 243.035 255.366 242.089 253.549 241.138 251.67 241.16 249.729 242.155V242.155C247.836 243.125 246.738 244.626 246.434 246.657 246.127 248.682 246.656 251.055 248.021 253.777V253.777L248.767 255.233C250.186 258.002 251.821 259.864 253.671 260.821 255.524 261.784 257.409 261.774 259.326 260.792V260.792C261.261 259.8 262.373 258.296 262.662 256.28 262.948 254.273 262.364 251.85 260.908 249.01ZM269.58 224.087L273.822 219.318 295.451 227.636 284.657 207.133 288.885 202.379 310.035 221.187 306.774 224.853 299.799 218.65 290.801 209.994 301.545 230.733 299.206 233.364 277.382 225.113 287.015 233.026 293.99 239.229 290.73 242.895ZM312.506 177.022L316.143 178.4 312.026 189.265 320.167 192.35 324.981 179.649 328.655 181.041 322.095 198.349 295.63 188.319 302.14 171.142 305.851 172.548 301.087 185.119 308.389 187.886Z" fill="#39619b" data-fill-palette-color="primary"></path><path d="M67.777 81.342L94.055 90.785 92.42 95.337 80.744 91.141 76.522 102.891 88.197 107.087 86.558 111.648 60.279 102.205 61.919 97.644 72.852 101.573 77.075 89.822 66.141 85.893ZM101.993 51.983L104.969 54.409 97.723 63.298 104.386 68.73 112.855 58.341 115.854 60.786 104.323 74.932 82.679 57.288 94.129 43.243 97.159 45.713 88.772 56.002 94.747 60.872ZM144.457 40.702L139.118 36.344 129.885 41.986 131.344 48.715 127.046 51.341 121.481 22.017 125.2 19.745 148.772 38.065ZM126.425 25.938L129.013 37.938 135.914 33.721ZM172.063 30.682L164.24 32.483 157.976 5.27 166.014 3.421C168.417 2.867 170.672 2.911 172.778 3.552 174.891 4.198 176.683 5.389 178.154 7.125 179.629 8.852 180.66 10.989 181.246 13.535V13.535L181.559 14.896C182.153 17.475 182.16 19.861 181.58 22.055 181.007 24.247 179.893 26.093 178.239 27.592 176.577 29.087 174.519 30.117 172.063 30.682ZM166.891 7.23L163.576 7.993 168.095 27.625 171.176 26.916C173.657 26.344 175.383 25.129 176.354 23.268 177.325 21.414 177.49 19.032 176.848 16.124V16.124L176.499 14.607C175.819 11.653 174.659 9.546 173.018 8.286 171.369 7.022 169.327 6.67 166.891 7.23ZM227.737 2.562L224.509 30.299 219.705 29.74 221.139 17.417 208.737 15.974 207.303 28.297 202.488 27.737 205.716 0 210.53 0.56 209.187 12.101 221.589 13.544 222.932 2.003ZM268.643 33.693L267.932 35.077C266.679 37.513 265.162 39.432 263.38 40.833 261.595 42.24 259.667 43.032 257.596 43.208 255.53 43.387 253.48 42.954 251.446 41.908V41.908C249.43 40.872 247.888 39.458 246.819 37.668 245.745 35.875 245.247 33.847 245.326 31.586 245.405 29.324 246.05 27.001 247.26 24.618V24.618L247.976 23.226C249.222 20.801 250.75 18.884 252.558 17.474 254.376 16.061 256.318 15.265 258.383 15.086 260.449 14.907 262.496 15.339 264.524 16.382 266.546 17.421 268.089 18.827 269.151 20.599 270.219 22.375 270.71 24.395 270.622 26.659 270.534 28.924 269.875 31.269 268.643 33.693ZM263.621 32.861L264.287 31.566C265.7 28.816 266.265 26.438 265.982 24.431 265.695 22.429 264.596 20.938 262.687 19.956V19.956C260.818 18.995 258.982 18.975 257.179 19.894 255.378 20.823 253.779 22.617 252.382 25.278V25.278L251.648 26.705C250.243 29.437 249.69 31.822 249.989 33.859 250.284 35.887 251.378 37.388 253.27 38.36V38.36C255.18 39.342 257.023 39.37 258.8 38.445 260.576 37.519 262.184 35.658 263.621 32.861ZM296.29 39.641L300.459 44.341 289.797 64.571 311.141 56.382 315.304 61.075 294.414 79.605 291.205 75.987 298.091 69.879 307.622 62.063 286.049 70.175 283.746 67.579 294.371 47.156 285.49 55.674 278.604 61.782 275.401 58.172ZM323.733 105.772L320.141 107.128 316.091 96.398 308.049 99.433 312.782 111.973 309.161 113.34 302.717 96.265 328.842 86.405 335.241 103.358 331.583 104.739 326.896 92.32 319.684 95.042Z" fill="#39619b" data-fill-palette-color="primary"></path><path d="M61.289 143.489C61.289 137.517 66.13 132.677 72.101 132.677 78.072 132.677 82.912 137.517 82.912 143.489 82.912 149.46 78.072 154.3 72.101 154.3 66.13 154.3 61.289 149.46 61.289 143.489ZM312.608 143.489C312.608 137.517 317.448 132.677 323.419 132.677 329.39 132.677 334.231 137.517 334.231 143.489 334.231 149.46 329.39 154.3 323.419 154.3 317.448 154.3 312.608 149.46 312.608 143.489Z" fill="#39619b" data-fill-palette-color="primary"></path></svg></g></svg></g></svg></g></svg></g><defs></defs></svg><rect width="395.52" height="280" fill="none" stroke="none" visibility="hidden"></rect></g></svg></g></svg>